<svg width="276" height="120" viewBox="0 0 276 120" fill="none" xmlns="http://www.w3.org/2000/svg">
<path fill-rule="evenodd" clip-rule="evenodd" d="M64.9988 77.1042L42.9994 39.0001L21 77.1042H31.549L36.2201 68.561H36.19L42.9994 56.0864L43.0036 56.0942L44.9662 52.4574L43.5007 57.0049L49.8087 68.561H39.8666L35.7027 77.1042H64.9988Z" fill="url(#paint0_linear)"/>
<path d="M29.6188 70.829L34.1516 72.2699L29.6188 80.6575L29.6188 77.1797L29.6188 70.829Z" fill="url(#paint1_linear)"/>
<path d="M63.7903 75.0629L65 77.1042H35.7415L63.7903 75.0629Z" fill="url(#paint2_linear)"/>
<path d="M30.554 64.2107L28.1812 64.2182L43.0171 39L30.554 64.2107Z" fill="url(#paint3_linear)"/>
<path d="M83.5455 49.578H82.6435L75.2075 64.186V65H90.4535V64.186L83.5455 49.578ZM79.8055 61.92L83.0175 55.628L85.9655 61.92H79.8055ZM104.106 65L95.4377 56.002V65H92.3577V49.578H93.3257L101.84 58.202V49.578H104.92V65H104.106ZM114.142 52.658V49.578H107.784V52.658H109.434V61.92H107.784V65H114.142V61.92H112.514V52.658H114.142ZM130.926 49.578L124.502 55.43L118.056 49.578H117V65H132.004V49.578H130.926ZM120.08 61.92V55.562L124.502 59.588L128.924 55.562V61.92H120.08ZM145.128 49.578H134.854V65H145.062V61.92H137.934V58.576H143.874V55.496H137.934V52.658H145.128V49.578ZM159.729 65L151.061 56.002V65H147.981V49.578H148.949L157.463 58.202V49.578H160.543V65H159.729ZM163.077 49.578V52.658H167.367V65H170.447V52.658H174.715V49.578H163.077ZM182.911 49.578H182.009L174.573 64.186V65H189.819V64.186L182.911 49.578ZM179.171 61.92L182.383 55.628L185.331 61.92H179.171ZM194.803 49.578H191.723V64.978H200.545V61.92H194.803V49.578Z" fill="white"/>
<defs>
<linearGradient id="paint0_linear" x1="42.9994" y1="76.7262" x2="42.9994" y2="39.0001" gradientUnits="userSpaceOnUse">
<stop stop-color="#6100FF"/>
<stop offset="1" stop-color="#1AB2E1" stop-opacity="0.1"/>
</linearGradient>
<linearGradient id="paint1_linear" x1="31.3587" y1="76.7953" x2="33.757" y2="71.3095" gradientUnits="userSpaceOnUse">
<stop stop-color="#5F03FC"/>
<stop offset="1" stop-color="#4D18DF"/>
</linearGradient>
<linearGradient id="paint2_linear" x1="35.7415" y1="77.1042" x2="64.3951" y2="76.4237" gradientUnits="userSpaceOnUse">
<stop stop-color="#130531"/>
<stop offset="1" stop-color="#C4C4C4" stop-opacity="0"/>
</linearGradient>
<linearGradient id="paint3_linear" x1="43.0171" y1="39" x2="29.0743" y2="64.0419" gradientUnits="userSpaceOnUse">
<stop stop-color="#5720CC"/>
<stop offset="1" stop-color="#C4C4C4" stop-opacity="0"/>
</linearGradient>
</defs>
</svg>
