     <svg width="293" height="100" viewBox="0 0 293 100" fill="none" xmlns="http://www.w3.org/2000/svg">
<path d="M0 0H293V71C293 87.0163 280.016 100 264 100H0V0Z" fill="url(#paint0_linear)"/>
<path d="M66.0907 60L60.8347 50.46H59.3587V60H53.2027V34.728H63.5347C65.5267 34.728 67.2187 35.076 68.6107 35.772C70.0267 36.468 71.0827 37.428 71.7787 38.652C72.4747 39.852 72.8227 41.196 72.8227 42.684C72.8227 44.364 72.3427 45.864 71.3827 47.184C70.4467 48.504 69.0547 49.44 67.2067 49.992L73.0387 60H66.0907ZM59.3587 46.104H63.1747C64.3027 46.104 65.1427 45.828 65.6947 45.276C66.2707 44.724 66.5587 43.944 66.5587 42.936C66.5587 41.976 66.2707 41.22 65.6947 40.668C65.1427 40.116 64.3027 39.84 63.1747 39.84H59.3587V46.104ZM95.6231 49.632C95.6231 50.208 95.5871 50.808 95.5151 51.432H81.5831C81.6791 52.68 82.0751 53.64 82.7711 54.312C83.4911 54.96 84.3671 55.284 85.3991 55.284C86.9351 55.284 88.0031 54.636 88.6031 53.34H95.1551C94.8191 54.66 94.2071 55.848 93.3191 56.904C92.4551 57.96 91.3631 58.788 90.0431 59.388C88.7231 59.988 87.2471 60.288 85.6151 60.288C83.6471 60.288 81.8951 59.868 80.3591 59.028C78.8231 58.188 77.6231 56.988 76.7591 55.428C75.8951 53.868 75.4631 52.044 75.4631 49.956C75.4631 47.868 75.8831 46.044 76.7231 44.484C77.5871 42.924 78.7871 41.724 80.3231 40.884C81.8591 40.044 83.6231 39.624 85.6151 39.624C87.5591 39.624 89.2871 40.032 90.7991 40.848C92.3111 41.664 93.4871 42.828 94.3271 44.34C95.1911 45.852 95.6231 47.616 95.6231 49.632ZM89.3231 48.012C89.3231 46.956 88.9631 46.116 88.2431 45.492C87.5231 44.868 86.6231 44.556 85.5431 44.556C84.5111 44.556 83.6351 44.856 82.9151 45.456C82.2191 46.056 81.7871 46.908 81.6191 48.012H89.3231ZM106.503 39.624C107.919 39.624 109.155 39.912 110.211 40.488C111.291 41.064 112.119 41.82 112.695 42.756V39.912H118.851V59.964C118.851 61.812 118.479 63.48 117.735 64.968C117.015 66.48 115.899 67.68 114.387 68.568C112.899 69.456 111.039 69.9 108.807 69.9C105.831 69.9 103.419 69.192 101.571 67.776C99.7227 66.384 98.6667 64.488 98.4027 62.088H104.487C104.679 62.856 105.135 63.456 105.855 63.888C106.575 64.344 107.463 64.572 108.519 64.572C109.791 64.572 110.799 64.2 111.543 63.456C112.311 62.736 112.695 61.572 112.695 59.964V57.12C112.095 58.056 111.267 58.824 110.211 59.424C109.155 60 107.919 60.288 106.503 60.288C104.847 60.288 103.347 59.868 102.003 59.028C100.659 58.164 99.5907 56.952 98.7987 55.392C98.0307 53.808 97.6467 51.984 97.6467 49.92C97.6467 47.856 98.0307 46.044 98.7987 44.484C99.5907 42.924 100.659 41.724 102.003 40.884C103.347 40.044 104.847 39.624 106.503 39.624ZM112.695 49.956C112.695 48.42 112.263 47.208 111.399 46.32C110.559 45.432 109.527 44.988 108.303 44.988C107.079 44.988 106.035 45.432 105.171 46.32C104.331 47.184 103.911 48.384 103.911 49.92C103.911 51.456 104.331 52.68 105.171 53.592C106.035 54.48 107.079 54.924 108.303 54.924C109.527 54.924 110.559 54.48 111.399 53.592C112.263 52.704 112.695 51.492 112.695 49.956ZM126.4 37.824C125.32 37.824 124.432 37.512 123.736 36.888C123.064 36.24 122.728 35.448 122.728 34.512C122.728 33.552 123.064 32.76 123.736 32.136C124.432 31.488 125.32 31.164 126.4 31.164C127.456 31.164 128.32 31.488 128.992 32.136C129.688 32.76 130.036 33.552 130.036 34.512C130.036 35.448 129.688 36.24 128.992 36.888C128.32 37.512 127.456 37.824 126.4 37.824ZM129.46 39.912V60H123.304V39.912H129.46ZM142.093 60.288C140.341 60.288 138.781 59.988 137.413 59.388C136.045 58.788 134.965 57.972 134.173 56.94C133.381 55.884 132.937 54.708 132.841 53.412H138.925C138.997 54.108 139.321 54.672 139.897 55.104C140.473 55.536 141.181 55.752 142.021 55.752C142.789 55.752 143.377 55.608 143.785 55.32C144.217 55.008 144.433 54.612 144.433 54.132C144.433 53.556 144.133 53.136 143.533 52.872C142.933 52.584 141.961 52.272 140.617 51.936C139.177 51.6 137.977 51.252 137.017 50.892C136.057 50.508 135.229 49.92 134.533 49.128C133.837 48.312 133.489 47.22 133.489 45.852C133.489 44.7 133.801 43.656 134.425 42.72C135.073 41.76 136.009 41.004 137.233 40.452C138.481 39.9 139.957 39.624 141.661 39.624C144.181 39.624 146.161 40.248 147.601 41.496C149.065 42.744 149.905 44.4 150.121 46.464H144.433C144.337 45.768 144.025 45.216 143.497 44.808C142.993 44.4 142.321 44.196 141.481 44.196C140.761 44.196 140.209 44.34 139.825 44.628C139.441 44.892 139.249 45.264 139.249 45.744C139.249 46.32 139.549 46.752 140.149 47.04C140.773 47.328 141.733 47.616 143.029 47.904C144.517 48.288 145.729 48.672 146.665 49.056C147.601 49.416 148.417 50.016 149.113 50.856C149.833 51.672 150.205 52.776 150.229 54.168C150.229 55.344 149.893 56.4 149.221 57.336C148.573 58.248 147.625 58.968 146.377 59.496C145.153 60.024 143.725 60.288 142.093 60.288ZM165.192 54.78V60H162.06C159.828 60 158.088 59.46 156.84 58.38C155.592 57.276 154.968 55.488 154.968 53.016V45.024H152.52V39.912H154.968V35.016H161.124V39.912H165.156V45.024H161.124V53.088C161.124 53.688 161.268 54.12 161.556 54.384C161.844 54.648 162.324 54.78 162.996 54.78H165.192ZM174.777 43.26C175.497 42.156 176.397 41.292 177.477 40.668C178.557 40.02 179.757 39.696 181.077 39.696V46.212H179.385C177.849 46.212 176.697 46.548 175.929 47.22C175.161 47.868 174.777 49.02 174.777 50.676V60H168.621V39.912H174.777V43.26ZM182.795 49.92C182.795 47.856 183.179 46.044 183.947 44.484C184.739 42.924 185.807 41.724 187.151 40.884C188.495 40.044 189.995 39.624 191.651 39.624C193.067 39.624 194.303 39.912 195.359 40.488C196.439 41.064 197.267 41.82 197.843 42.756V39.912H203.999V60H197.843V57.156C197.243 58.092 196.403 58.848 195.323 59.424C194.267 60 193.031 60.288 191.615 60.288C189.983 60.288 188.495 59.868 187.151 59.028C185.807 58.164 184.739 56.952 183.947 55.392C183.179 53.808 182.795 51.984 182.795 49.92ZM197.843 49.956C197.843 48.42 197.411 47.208 196.547 46.32C195.707 45.432 194.675 44.988 193.451 44.988C192.227 44.988 191.183 45.432 190.319 46.32C189.479 47.184 189.059 48.384 189.059 49.92C189.059 51.456 189.479 52.68 190.319 53.592C191.183 54.48 192.227 54.924 193.451 54.924C194.675 54.924 195.707 54.48 196.547 53.592C197.411 52.704 197.843 51.492 197.843 49.956ZM219.649 54.78V60H216.517C214.285 60 212.545 59.46 211.297 58.38C210.049 57.276 209.425 55.488 209.425 53.016V45.024H206.977V39.912H209.425V35.016H215.581V39.912H219.613V45.024H215.581V53.088C215.581 53.688 215.725 54.12 216.013 54.384C216.301 54.648 216.781 54.78 217.453 54.78H219.649ZM242.014 49.632C242.014 50.208 241.978 50.808 241.906 51.432H227.974C228.07 52.68 228.466 53.64 229.162 54.312C229.882 54.96 230.758 55.284 231.79 55.284C233.326 55.284 234.394 54.636 234.994 53.34H241.546C241.21 54.66 240.598 55.848 239.71 56.904C238.846 57.96 237.754 58.788 236.434 59.388C235.114 59.988 233.638 60.288 232.006 60.288C230.038 60.288 228.286 59.868 226.75 59.028C225.214 58.188 224.014 56.988 223.15 55.428C222.286 53.868 221.854 52.044 221.854 49.956C221.854 47.868 222.274 46.044 223.114 44.484C223.978 42.924 225.178 41.724 226.714 40.884C228.25 40.044 230.014 39.624 232.006 39.624C233.95 39.624 235.678 40.032 237.19 40.848C238.702 41.664 239.878 42.828 240.718 44.34C241.582 45.852 242.014 47.616 242.014 49.632ZM235.714 48.012C235.714 46.956 235.354 46.116 234.634 45.492C233.914 44.868 233.014 44.556 231.934 44.556C230.902 44.556 230.026 44.856 229.306 45.456C228.61 46.056 228.178 46.908 228.01 48.012H235.714Z" fill="white"/>
<defs>
<linearGradient id="paint0_linear" x1="-3.49283e-07" y1="50" x2="293" y2="50" gradientUnits="userSpaceOnUse">
<stop stop-color="#6100FF"/>
<stop offset="0.50806" stop-color="#9E00FF"/>
<stop offset="1" stop-color="#EA01FE" stop-opacity="0.72"/>
</linearGradient>
</defs>
</svg>