<svg width="164" height="164" viewBox="0 0 164 164" fill="none" xmlns="http://www.w3.org/2000/svg">
<circle cx="82" cy="82" r="80.5" stroke="#C6C2C2" stroke-opacity="0.7" stroke-width="3"/>
<path d="M46.6875 46.6875H64.6575V42H42V64.6575H46.6875V46.6875Z" fill="#8E8B93"/>
<path d="M99.3425 42V46.6875H117.312V64.6575H122V42H99.3425Z" fill="#8E8B93"/>
<path d="M46.6875 99.3425H42V122H64.6575V117.312H46.6875V99.3425Z" fill="#8E8B93"/>
<path d="M117.312 117.312H99.3425V122H122V99.3425H117.312V117.312Z" fill="#8E8B93"/>
<path d="M71.3243 84.1118C61.7577 87.1801 54.8125 96.1595 54.8125 106.732V109.076H108.875V106.732C108.875 96.1693 101.943 87.1965 92.3894 84.1204C96.5337 80.9471 99.2119 75.9508 99.2119 70.3398C99.2119 60.7732 91.4293 52.9906 81.8627 52.9906C72.296 52.9906 64.5134 60.7732 64.5134 70.3398C64.5134 75.9459 67.1868 80.938 71.3243 84.1118V84.1118ZM85.1256 87.6702C94.843 87.6702 102.885 94.9797 104.044 104.388H59.6434C60.8025 94.9797 68.8451 87.6702 78.5619 87.6702H85.1256ZM81.8627 57.6781C88.8445 57.6781 94.5244 63.358 94.5244 70.3398C94.5244 77.0934 89.2095 82.628 82.5426 82.9827H81.1821C74.5159 82.628 69.2009 77.0934 69.2009 70.3398C69.2009 63.358 74.8809 57.6781 81.8627 57.6781Z" fill="#8E8B93"/>
</svg>
