<svg width="291" height="270" viewBox="0 0 291 270" fill="none" xmlns="http://www.w3.org/2000/svg">
<path fill-rule="evenodd" clip-rule="evenodd" d="M290.985 252L145.492 0L0 252H69.7656L100.658 195.5H100.459L145.492 113L145.549 113.105L153.492 98.5L147.517 116.71L190.526 195.5H124.774L97.236 252H290.985Z" fill="url(#paint0_linear)"/>
<path d="M75.8184 213.824L86.9777 220.029L60.9521 268.559L64.8811 253.207L75.8184 213.824Z" fill="url(#paint1_linear)"/>
<path d="M282.992 238.5L290.992 252H97.4923L282.992 238.5Z" fill="url(#paint2_linear)"/>
<path d="M63.1846 166.73L47.4923 166.779L145.609 -1.13249e-06L63.1846 166.73Z" fill="url(#paint3_linear)"/>
<defs>
<linearGradient id="paint0_linear" x1="145.492" y1="249.5" x2="145.492" y2="5.98927e-06" gradientUnits="userSpaceOnUse">
<stop stop-color="#6100FF"/>
<stop offset="1" stop-color="#1AB2E1" stop-opacity="0.1"/>
</linearGradient>
<linearGradient id="paint1_linear" x1="68.5067" y1="249.958" x2="84.3681" y2="213.678" gradientUnits="userSpaceOnUse">
<stop stop-color="#5F03FC"/>
<stop offset="1" stop-color="#4D18DF"/>
</linearGradient>
<linearGradient id="paint2_linear" x1="97.4923" y1="252" x2="286.992" y2="247.5" gradientUnits="userSpaceOnUse">
<stop stop-color="#130531"/>
<stop offset="1" stop-color="#C4C4C4" stop-opacity="0"/>
</linearGradient>
<linearGradient id="paint3_linear" x1="145.609" y1="-1.71342e-05" x2="53.3991" y2="165.614" gradientUnits="userSpaceOnUse">
<stop stop-color="#5720CC"/>
<stop offset="1" stop-color="#C4C4C4" stop-opacity="0"/>
</linearGradient>
</defs>
</svg>
