<svg width="286" height="36" viewBox="0 0 286 36" fill="none" xmlns="http://www.w3.org/2000/svg">
<path d="M19.7398 0.949998H17.6898L0.789844 34.15V36H35.4398V34.15L19.7398 0.949998ZM11.2398 29L18.5398 14.7L25.2398 29H11.2398ZM66.4676 36L46.7676 15.55V36H39.7676V0.949998H41.9676L61.3176 20.55V0.949998H68.3176V36H66.4676ZM89.2762 7.95V0.949998H74.8262V7.95H78.5762V29H74.8262V36H89.2762V29H85.5762V7.95H89.2762ZM127.423 0.949998L112.823 14.25L98.1734 0.949998H95.7734V36H129.873V0.949998H127.423ZM102.773 29V14.55L112.823 23.7L122.873 14.55V29H102.773ZM159.7 0.949998H136.35V36H159.55V29H143.35V21.4H156.85V14.4H143.35V7.95H159.7V0.949998ZM192.884 36L173.184 15.55V36H166.184V0.949998H168.384L187.734 20.55V0.949998H194.734V36H192.884ZM200.492 0.949998V7.95H210.242V36H217.242V7.95H226.942V0.949998H200.492ZM245.57 0.949998H243.52L226.62 34.15V36H261.27V34.15L245.57 0.949998ZM237.07 29L244.37 14.7L251.07 29H237.07ZM272.598 0.949998H265.598V35.95H285.648V29H272.598V0.949998Z" fill="#FFFBFB"/>
</svg>
