<svg width="381" height="39" viewBox="0 0 381 39" fill="none" xmlns="http://www.w3.org/2000/svg">
<path d="M23.5409 12.6C21.0609 10.68 17.9409 9.52 14.5809 9.52C6.58094 9.52 0.0609377 16.04 0.0609377 24.04C0.0609377 32.04 6.58094 38.56 14.5809 38.56C18.1009 38.56 21.3409 37.28 23.8609 35.2L20.2609 31.08C14.9809 35.08 6.30094 31.92 6.30094 24.04C6.30094 16.52 14.5009 13.24 19.9409 16.76L23.5409 12.6ZM28.6453 9.92V37.96H34.2453V20.68L37.0453 26.72V26.76L42.2853 38H48.2453L42.4053 26C45.8853 25.4 48.0853 21.76 48.0853 18.36C48.0853 13.72 44.3253 9.92 39.6853 9.92H28.6453ZM37.2853 15.52H39.6853C41.2453 15.52 42.4853 16.8 42.4853 18.36C42.4853 19.8 41.4053 20.96 40.0453 21.12L37.2853 15.52ZM71.1238 9.96H52.4438V38H71.0038V32.4H58.0438V26.32H68.8438V20.72H58.0438V15.56H71.1238V9.96ZM90.2497 9.96H88.6097L75.0897 36.52V38H102.81V36.52L90.2497 9.96ZM83.4497 32.4L89.2897 20.96L94.6497 32.4H83.4497ZM118.875 9.96V15.56H126.675V38H132.275V15.56H140.035V9.96H118.875ZM151.031 5.92L157.511 0.319999L162.111 3.6L153.431 7.64L151.031 5.92ZM165.711 27.64V9.96H160.111V27.68H160.151C160.111 29.08 159.591 30.36 158.591 31.36C157.591 32.36 156.311 32.88 154.911 32.88C153.511 32.88 152.191 32.36 151.191 31.36C150.191 30.36 149.631 29.04 149.631 27.64V9.96H144.031V27.68C144.071 33.64 148.911 38.48 154.911 38.48C160.871 38.48 165.751 33.64 165.751 27.64H165.711ZM203.407 27.64V9.96H197.807V27.68H197.847C197.807 29.08 197.287 30.36 196.287 31.36C195.287 32.36 194.007 32.88 192.607 32.88C191.207 32.88 189.887 32.36 188.887 31.36C187.887 30.36 187.327 29.04 187.327 27.64V9.96H181.727V27.68C181.767 33.64 186.607 38.48 192.607 38.48C198.567 38.48 203.447 33.64 203.447 27.64H203.407ZM227.007 38L211.247 21.64V38H205.647V9.96H207.407L222.887 25.64V9.96H228.487V38H227.007ZM245.254 15.56V9.96H233.694V15.56H236.694V32.4H233.694V38H245.254V32.4H242.294V15.56H245.254ZM248.25 9.96V11.44L261.77 38H263.41L275.97 11.44V9.96H248.25ZM262.45 27L256.61 15.56H267.81L262.45 27ZM299.249 9.96H280.569V38H299.129V32.4H286.169V26.32H296.969V20.72H286.169V15.56H299.249V9.96ZM304.036 9.92V37.96H309.636V20.68L312.436 26.72V26.76L317.676 38H323.636L317.796 26C321.276 25.4 323.476 21.76 323.476 18.36C323.476 13.72 319.716 9.92 315.076 9.92H304.036ZM312.676 15.52H315.076C316.636 15.52 317.876 16.8 317.876 18.36C317.876 19.8 316.796 20.96 315.436 21.12L312.676 15.52ZM336.954 26.16L337.074 26.2C339.994 27.2 341.714 28.6 341.714 30.12C341.714 30.84 340.954 32.96 338.634 32.96C337.394 32.96 334.074 32.96 331.114 29.8L327.034 33.64C328.954 35.68 331.194 37.08 333.714 37.88C335.714 38.48 337.394 38.56 338.634 38.56C341.154 38.56 343.434 37.52 345.074 35.68C346.474 34.12 347.314 32.08 347.314 30.12C347.314 28.12 346.554 26.24 345.114 24.64C343.674 23.08 341.594 21.84 338.914 20.92C338.674 20.84 338.434 20.76 338.114 20.68C335.554 20.04 334.554 19.24 334.514 17.8C334.474 16.88 334.754 16.44 334.994 16.2C335.714 15.44 337.114 15.16 337.474 15.16C339.914 15.16 341.074 15.92 342.874 17.08L343.874 17.72L346.794 12.96L345.874 12.36C343.834 11.04 341.554 9.56 337.474 9.56C336.034 9.56 333.034 10.16 330.954 12.32C329.514 13.84 328.794 15.8 328.914 18.04C329.034 20.72 330.274 22.88 332.514 24.36C334.114 25.44 335.834 25.88 336.754 26.12L336.954 26.16ZM365.822 9.44C357.822 9.44 351.302 15.96 351.302 23.96C351.302 31.96 357.822 38.48 365.822 38.48C373.822 38.48 380.342 31.96 380.342 23.96C380.342 15.96 373.822 9.44 365.822 9.44ZM365.822 15.2C370.662 15.2 374.582 19.12 374.582 23.96C374.582 28.8 370.662 32.72 365.822 32.72C360.982 32.72 357.062 28.8 357.062 23.96C357.062 19.12 360.982 15.2 365.822 15.2ZM365.822 20.24C367.982 20.24 369.542 21.8 369.542 23.96C369.542 26.12 367.982 27.68 365.822 27.68C363.662 27.68 362.102 26.12 362.102 23.96C362.102 21.8 363.662 20.24 365.822 20.24Z" fill="black"/>
</svg>
